<?xml version="1.0" encoding="utf-8"?>
<!-- Generator: Adobe Illustrator 24.2.1, SVG Export Plug-In . SVG Version: 6.00 Build 0)  -->
<svg version="1.1" id="Layer_1" xmlns="http://www.w3.org/2000/svg" xmlns:xlink="http://www.w3.org/1999/xlink" x="0px" y="0px"
	 viewBox="0 0 512.9 512.9" style="enable-background:new 0 0 512.9 512.9;" xml:space="preserve">
<style type="text/css">
	.st0{fill:#FFFFFF;}
</style>
<path class="st0" d="M256.4,0C115.2,0,0.4,114.8,0.4,256c0,105,62.7,195.1,153.6,234.8c-0.9-17.7,0-39.7,4.4-59.1
	c5.3-21.2,32.7-139.5,32.7-139.5s-7.9-16.8-7.9-40.6c0-38,22.1-66.2,49.4-66.2c23,0,34.4,17.7,34.4,38.8c0,23-15,58.3-23,90.9
	c-6.2,27.4,13.2,49.4,40.6,49.4c48.6,0,81.2-62.7,81.2-135.9c0-56.5-38-98-106.8-98c-77.7,0-126.2,58.3-126.2,122.7
	c0,22.1,6.2,38,16.8,50.3c4.4,5.3,5.3,7.9,3.5,14.1c-0.9,4.4-4.4,15.9-5.3,20.3c-1.8,6.2-7.1,8.8-13.2,6.2
	c-36.2-15-52.1-53.8-52.1-98c0-72.4,60.9-159.8,182.7-159.8c98,0,162.4,70.6,162.4,146.5c0,100.6-55.6,175.7-137.7,175.7
	c-27.4,0-53.8-15-62.7-31.8c0,0-15,59.1-17.7,70.6c-5.3,19.4-15.9,39.7-25.6,54.7c23,7.1,47.7,10.6,72.4,10.6
	c141.2,0,256-114.8,256-256S397.7,0,256.4,0"/>
</svg>
