<svg id="Layer_1" data-name="Layer 1" xmlns="http://www.w3.org/2000/svg" xmlns:xlink="http://www.w3.org/1999/xlink" viewBox="0 0 965.75 442.26"><defs><style>.cls-1{fill:none;}.cls-2{clip-path:url(#clip-path);}.cls-3{fill:#fff;}.cls-4{fill:#d6d7d8;}.cls-5{clip-path:url(#clip-path-2);}</style><clipPath id="clip-path" transform="translate(0.83 -0.08)"><rect class="cls-1" x="0.38" y="0.07" width="965.66" height="442.27"/></clipPath><clipPath id="clip-path-2" transform="translate(0.83 -0.08)"><rect class="cls-1" x="727.61" y="162.33" width="200.79" height="280.01"/></clipPath></defs><g class="cls-2"><path class="cls-3" d="M123.21,103.79c0-16.13,18.44-24.42,31.81-24.42,32.27,0,59,19.35,59,53.47h83.44V17.13h-79.3l-4.61,38.72c-18.43-34.57-57.62-47-96.34-47C72.05,8.83,7.5,39.72,7.5,108c0,117.54,177,102.32,177,138.3,0,19.35-23.05,23-39.18,23-19.36-.93-58.08-7.38-58.08-46.1H1.51V339.37H82.19l5.07-35.51c17.51,20.74,49.78,42.43,96.34,42.43,54.85,0,122.17-25.82,122.17-97.74,0-108.33-182.56-97.27-182.56-144.75" transform="translate(0.83 -0.08)"/><polyline class="cls-3" points="329.66 77.89 358.68 77.89 358.68 277.98 329.66 277.98 329.66 339.29 607.63 339.29 607.63 235.08 527.88 235.08 527.88 277.98 454.11 277.98 454.11 202.83 541.71 202.83 541.71 141.52 454.11 141.52 454.11 77.89 527.88 77.89 527.88 118.93 607.63 118.93 607.63 17.05 329.66 17.05 329.66 77.9"/><path class="cls-3" d="M842.87,170.85a47.74,47.74,0,1,0-80.29,34.9v-20c0-.81,0-1.61.08-2.42a34.8,34.8,0,1,1,64.94,0c0,.81.08,1.61.08,2.42v20a47.53,47.53,0,0,0,15.19-34.9" transform="translate(0.83 -0.08)"/><path class="cls-4" d="M846.14,234.37a33.47,33.47,0,0,1,11.6,7.16,94.39,94.39,0,1,0-95.16,18v-14a81.53,81.53,0,1,1,83.56-11.17" transform="translate(0.83 -0.08)"/><path class="cls-3" d="M795.27.08A169.63,169.63,0,0,0,719.6,321.54c-.06-.32-.14-.67-.22-1-.86-3.55-2-7.47-3.21-11.58-3.57-12.28-7.22-24.85-5.56-36.09A133.47,133.47,0,1,1,898.71,254a38.42,38.42,0,0,1,8.54,10.49c.63,0,1.22,0,1.8,0a36.08,36.08,0,0,1,21.85,7.16A169.65,169.65,0,0,0,795.27.08" transform="translate(0.83 -0.08)"/></g><g class="cls-5"><path class="cls-3" d="M909.05,282.58c-6.67,0-11.27,3.06-14.86,8.11v-6.47c0-12.49-9.25-21.34-20.63-21.34a20.18,20.18,0,0,0-17.89,10.41v-6c0-12.86-9.51-22-21.23-22a20.8,20.8,0,0,0-19.7,13.49v-73c0-12.86-8.78-23.29-19.61-23.29s-19.61,10.43-19.61,23.29V313.63c-2.74-8.09-5.28-15.23-7.22-20.3-7-18.05-20.49-29.17-31.56-26.79-16.55,3.5-4.53,29.79.22,49.81,3.92,16.45,12.54,47.74,15.56,55.31,5.29,13.22,11,24.46,16.63,32,17.62,26.94,45.07,38.64,75.27,38.64,36.58,0,83.19-21.56,83.19-86.24h-.08c0-.51.08-1,.08-1.52v-52c0-11.79-7.6-20-18.56-20" transform="translate(0.83 -0.08)"/></g><path class="cls-3" d="M49,391.45H36.84a9.11,9.11,0,0,0-1.3-3.49,11.2,11.2,0,0,0-5.76-4.62,11,11,0,0,0-3.72-.65,7.08,7.08,0,0,0-3.75.89A2.75,2.75,0,0,0,20.87,386a2.9,2.9,0,0,0,1.29,2.45,12.46,12.46,0,0,0,3.39,1.62c1.39.45,3,.89,4.78,1.3s3.61.94,5.46,1.55a43.58,43.58,0,0,1,5.47,2.23A18.25,18.25,0,0,1,46,398.53a15.73,15.73,0,0,1,3.39,5,17.7,17.7,0,0,1,1.28,7.06,14.14,14.14,0,0,1-1.87,7.47,15.29,15.29,0,0,1-5,5.08A23.29,23.29,0,0,1,36.51,426,39.28,39.28,0,0,1,28,427a33,33,0,0,1-8.22-1,34.15,34.15,0,0,1-8-3.23V426H-.39v-20H11.75A11.9,11.9,0,0,0,16,412.7a11.43,11.43,0,0,0,7.21,2.48,6.53,6.53,0,0,0,4-1,2.88,2.88,0,0,0,1.32-2.3,3.42,3.42,0,0,0-2.19-3.13,28.4,28.4,0,0,0-5.42-2q-3.24-.87-7.09-1.95a27.2,27.2,0,0,1-7.08-3.13,17.78,17.78,0,0,1-5.43-5.39,15.75,15.75,0,0,1-2.18-8.76,14.33,14.33,0,0,1,1.72-7.1,16.18,16.18,0,0,1,4.64-5.21,21.33,21.33,0,0,1,6.72-3.2,29.24,29.24,0,0,1,8-1.08,32.64,32.64,0,0,1,10,1.36,27.86,27.86,0,0,1,6.51,2.87v-3.42H49Z" transform="translate(0.83 -0.08)"/><path class="cls-3" d="M112.71,371.77v21.56h-12.1c0-1.65,0-3.08-.13-4.29a10.47,10.47,0,0,0-.57-2.94,3.27,3.27,0,0,0-1.35-1.66,4.76,4.76,0,0,0-2.41-.53H93.87v24.28a3.53,3.53,0,0,0,1.4,3.26,9.21,9.21,0,0,0,4.64.86V426H66.17V412.31a9.1,9.1,0,0,0,4.62-.86c.91-.58,1.37-1.66,1.37-3.26V383.91H69.92a4.76,4.76,0,0,0-2.41.53,3.34,3.34,0,0,0-1.36,1.66,9.22,9.22,0,0,0-.57,2.94c-.08,1.21-.11,2.64-.11,4.29H53.33V371.77Z" transform="translate(0.83 -0.08)"/><path class="cls-3" d="M142.29,407.05H130.67l-.52,1.58a2.85,2.85,0,0,0,.08,2.63q.66,1,2.79,1.05h2.1V426H112.2V412.31h1.51c1.76,0,2.94-.35,3.55-1.05a11.43,11.43,0,0,0,1.74-3.07l7.55-18.62c.54-1.42.63-2.47.27-3.14s-1.43-1-3.22-1h-.77V371.77h37.82v13.65h-.73c-1.82,0-2.9.35-3.26,1.06a3.87,3.87,0,0,0,.31,3.09l7.55,18.62c.29.69.56,1.28.79,1.79a4.56,4.56,0,0,0,.86,1.28,3.23,3.23,0,0,0,1.38.8,8.11,8.11,0,0,0,2.23.25h1.51V426H137.84V412.31h2a3.2,3.2,0,0,0,2.81-1.05,2.75,2.75,0,0,0,.13-2.63Zm-9.75-5.74h7.84L136.7,390h-.29Z" transform="translate(0.83 -0.08)"/><path class="cls-3" d="M232.18,371.77v21.56h-12.1c0-1.65-.05-3.08-.13-4.29a10.47,10.47,0,0,0-.57-2.94,3.22,3.22,0,0,0-1.35-1.66,4.76,4.76,0,0,0-2.41-.53h-2.28v24.28a3.53,3.53,0,0,0,1.4,3.26,9.21,9.21,0,0,0,4.64.86V426H185.64V412.31a9.1,9.1,0,0,0,4.62-.86c.91-.58,1.37-1.66,1.37-3.26V383.91h-2.24a4.76,4.76,0,0,0-2.41.53,3.34,3.34,0,0,0-1.36,1.66,9.22,9.22,0,0,0-.57,2.94c-.08,1.21-.11,2.64-.11,4.29H172.8V371.77Z" transform="translate(0.83 -0.08)"/><path class="cls-3" d="M268.83,412.31a10.6,10.6,0,0,0,2.52-.25,3.13,3.13,0,0,0,1.62-1,4.16,4.16,0,0,0,.83-2,19.75,19.75,0,0,0,.22-3.2h12.87v20H234.46V412.31a9.21,9.21,0,0,0,4.64-.86,3.53,3.53,0,0,0,1.4-3.26V389.57c0-1.61-.47-2.71-1.4-3.29a9.33,9.33,0,0,0-4.64-.86V371.77h52.43v20.05H274a19.75,19.75,0,0,0-.22-3.2,4,4,0,0,0-.83-1.95,3.26,3.26,0,0,0-1.62-1,10,10,0,0,0-2.52-.27h-6.62v9.78h11.73v6.52H262.21v10.59Z" transform="translate(0.83 -0.08)"/><path class="cls-3" d="M340.39,370.29a25.14,25.14,0,0,1,8.54,1.46,21.08,21.08,0,0,1,3.05,1.36,20,20,0,0,1,2.1,1.31v-2.65h12.14v20.05H353.34a12.2,12.2,0,0,0-.6-4.12,7.54,7.54,0,0,0-1.62-2.69,5.85,5.85,0,0,0-2.38-1.47,9.54,9.54,0,0,0-2.94-.44,7.65,7.65,0,0,0-3.71.83,6.22,6.22,0,0,0-2.53,2.66,16.12,16.12,0,0,0-1.47,4.9,47.36,47.36,0,0,0-.49,7.43,43.15,43.15,0,0,0,.53,7.45,15,15,0,0,0,1.62,4.86,6.5,6.5,0,0,0,2.78,2.68,9,9,0,0,0,4,.83,7.85,7.85,0,0,0,3.06-.61,7.07,7.07,0,0,0,2.59-1.85,9,9,0,0,0,1.77-3.13,14,14,0,0,0,.64-4.53h12.81a26,26,0,0,1-1.48,8.83,19.29,19.29,0,0,1-4.59,7.29,22.5,22.5,0,0,1-7.95,5A32.27,32.27,0,0,1,342,427.55a38.43,38.43,0,0,1-11.27-1.62,24.91,24.91,0,0,1-9.27-5.08,24,24,0,0,1-6.26-8.89,33.35,33.35,0,0,1-2.3-13,32.79,32.79,0,0,1,2.34-13,25,25,0,0,1,6.18-8.89,24.44,24.44,0,0,1,8.77-5.08A32.59,32.59,0,0,1,340.39,370.29Z" transform="translate(0.83 -0.08)"/><path class="cls-3" d="M372.33,398.92a30.91,30.91,0,0,1,2.34-12.46,24.19,24.19,0,0,1,6.6-8.95,28.3,28.3,0,0,1,10.14-5.41,47.3,47.3,0,0,1,25.92,0,28.22,28.22,0,0,1,10.14,5.41,24.37,24.37,0,0,1,6.58,8.95,34.24,34.24,0,0,1,0,24.88,24.56,24.56,0,0,1-6.58,9,28.23,28.23,0,0,1-10.14,5.42,47.3,47.3,0,0,1-25.92,0,28.32,28.32,0,0,1-10.14-5.42,24.38,24.38,0,0,1-6.6-9A30.78,30.78,0,0,1,372.33,398.92Zm24.73,0a70,70,0,0,0,.33,7.45,16.34,16.34,0,0,0,1.16,4.86,5.63,5.63,0,0,0,2.22,2.68,8.09,8.09,0,0,0,7.14,0,5.53,5.53,0,0,0,2.26-2.68,16.66,16.66,0,0,0,1.16-4.86,84,84,0,0,0,0-14.88,16.56,16.56,0,0,0-1.16-4.9,5.57,5.57,0,0,0-2.26-2.66,8.09,8.09,0,0,0-7.14,0,5.67,5.67,0,0,0-2.22,2.66,16.25,16.25,0,0,0-1.16,4.9A70.6,70.6,0,0,0,397.06,398.92Z" transform="translate(0.83 -0.08)"/><path class="cls-3" d="M473.51,385.42a9.17,9.17,0,0,0-4.61.86c-.92.58-1.38,1.68-1.38,3.29v22.74h7.35a9.2,9.2,0,0,0,2.54-.29,2.77,2.77,0,0,0,1.62-1.23,6.9,6.9,0,0,0,.83-2.63,33.46,33.46,0,0,0,.24-4.49H493V426H439.77V412.31a9.21,9.21,0,0,0,4.64-.86,3.53,3.53,0,0,0,1.4-3.26V389.57c0-1.61-.47-2.71-1.4-3.29a9.33,9.33,0,0,0-4.64-.86V371.77h33.74Z" transform="translate(0.83 -0.08)"/><path class="cls-3" d="M529.73,385.42a9.19,9.19,0,0,0-4.61.86c-.92.58-1.38,1.68-1.38,3.29v22.74h7.36a9.29,9.29,0,0,0,2.54-.29,2.78,2.78,0,0,0,1.61-1.23,6.73,6.73,0,0,0,.83-2.63,33.46,33.46,0,0,0,.24-4.49H549.2V426H496V412.31a9.21,9.21,0,0,0,4.64-.86,3.53,3.53,0,0,0,1.4-3.26V389.57c0-1.61-.47-2.71-1.4-3.29a9.33,9.33,0,0,0-4.64-.86V371.77h33.74Z" transform="translate(0.83 -0.08)"/><path class="cls-3" d="M586.58,412.31a10.49,10.49,0,0,0,2.52-.25,3,3,0,0,0,1.62-1,4.06,4.06,0,0,0,.83-2,18.67,18.67,0,0,0,.22-3.2h12.88v20H552.22V412.31a9.2,9.2,0,0,0,4.63-.86,3.53,3.53,0,0,0,1.4-3.26V389.57c0-1.61-.47-2.71-1.4-3.29a9.31,9.31,0,0,0-4.63-.86V371.77h52.43v20.05H591.77a18.67,18.67,0,0,0-.22-3.2,3.9,3.9,0,0,0-.83-1.95,3.18,3.18,0,0,0-1.62-1,9.9,9.9,0,0,0-2.52-.27H580v9.78H591.7v6.52H580v10.59Z" transform="translate(0.83 -0.08)"/><path class="cls-3" d="M653.33,426l-1.22-3.68a20.39,20.39,0,0,1-6.38,3.68,25.59,25.59,0,0,1-9.37,1.59,38.37,38.37,0,0,1-11.26-1.62,25.06,25.06,0,0,1-9.25-5.08A24,24,0,0,1,609.6,412a33.17,33.17,0,0,1-2.3-13,31.55,31.55,0,0,1,2.44-13,25.34,25.34,0,0,1,6.44-8.89,25.66,25.66,0,0,1,9-5.08,33.54,33.54,0,0,1,10.33-1.62,29.53,29.53,0,0,1,5.58.48,25.87,25.87,0,0,1,4.36,1.2,19.12,19.12,0,0,1,3.16,1.51c.86.52,1.56,1,2.1,1.3v-3h12.14v20.05H650a9.55,9.55,0,0,0-2.33-6.31,7.8,7.8,0,0,0-6.09-2.41,9.6,9.6,0,0,0-3.72.72,7.15,7.15,0,0,0-3,2.52,13.75,13.75,0,0,0-2.08,4.85,33.25,33.25,0,0,0-.75,7.73,46.93,46.93,0,0,0,.49,7.45,14.86,14.86,0,0,0,1.55,4.86,6.44,6.44,0,0,0,2.67,2.68,8.33,8.33,0,0,0,3.9.83,10.44,10.44,0,0,0,1.3-.11,6.32,6.32,0,0,0,1.51-.39,4.34,4.34,0,0,0,1.25-.71,1.49,1.49,0,0,0,.53-1.22v-2a3.12,3.12,0,0,0-1.17-2.63c-.79-.6-2.26-.9-4.42-.9V394.61h31.06v12.15a9.33,9.33,0,0,0-4.64.86,3.53,3.53,0,0,0-1.4,3.26V426Z" transform="translate(0.83 -0.08)"/><path class="cls-3" d="M708,412.31a10.6,10.6,0,0,0,2.52-.25,3.13,3.13,0,0,0,1.62-1,4.16,4.16,0,0,0,.83-2,19.75,19.75,0,0,0,.22-3.2H726.1v20H673.67V412.31a9.21,9.21,0,0,0,4.64-.86,3.53,3.53,0,0,0,1.4-3.26V389.57c0-1.61-.47-2.71-1.4-3.29a9.33,9.33,0,0,0-4.64-.86V371.77H726.1v20.05H713.23a19.75,19.75,0,0,0-.22-3.2,4,4,0,0,0-.83-1.95,3.26,3.26,0,0,0-1.62-1,10,10,0,0,0-2.52-.27h-6.63v9.78h11.74v6.52H701.41v10.59Z" transform="translate(0.83 -0.08)"/></svg>